<svg xmlns="http://www.w3.org/2000/svg" viewBox="0 0 24 24" fill="black"><path d="M17.05 12.04c-.03-3.02 2.47-4.47 2.58-4.54-1.41-2.06-3.6-2.34-4.38-2.37-1.86-.19-3.64 1.1-4.59 1.1-.95 0-2.41-1.07-3.97-1.04-2.04.03-3.93 1.19-4.98 3.02-2.13 3.69-.54 9.15 1.52 12.14 1.01 1.46 2.21 3.1 3.78 3.04 1.52-.06 2.09-.98 3.93-.98 1.83 0 2.35.98 3.95.95 1.63-.03 2.66-1.49 3.66-2.96 1.15-1.69 1.63-3.33 1.66-3.42-.04-.02-3.18-1.22-3.21-4.84zM14.13 3.37c.84-1.02 1.41-2.44 1.25-3.85-1.21.05-2.68.81-3.55 1.83-.78.9-1.46 2.34-1.28 3.72 1.35.1 2.73-.69 3.58-1.7z"/></svg>
